<?xml version="1.0" encoding="utf-8"?>
<!-- Generator: Adobe Illustrator 16.0.3, SVG Export Plug-In . SVG Version: 6.00 Build 0)  -->
<!DOCTYPE svg PUBLIC "-//W3C//DTD SVG 1.1//EN" "http://www.w3.org/Graphics/SVG/1.1/DTD/svg11.dtd">
<svg version="1.1" id="Layer_1" xmlns="http://www.w3.org/2000/svg" xmlns:xlink="http://www.w3.org/1999/xlink" x="0px" y="0px"
	 width="39.999px" height="32px" viewBox="0 0 39.999 32" enable-background="new 0 0 39.999 32" xml:space="preserve">
<path fill-rule="evenodd" clip-rule="evenodd" fill="#7C8BAC" d="M22.842,24.588l2.802-0.209l-0.822-0.559
	c-0.467-0.305-0.934-0.627-1.41-0.967l-0.284-0.192l-0.285-0.025l0.225-0.018l-1.117-0.784c-0.984-0.697-2.006-1.438-3.035-2.196
	c-3.616-2.676-6.842-5.248-9.272-7.374l-0.087-0.087l-0.026,0.061c-0.337,1.099-0.519,2.275-0.519,3.487
	c0,6.468,5.208,11.715,11.625,11.715c2.406,0,4.646-0.741,6.505-2.006l0.052-0.042l-0.753-0.489L22.842,24.588z M31.576,23.812
	L31.5,23.742l0.189,0.184c1.055,1.028,1.6,1.717,1.454,1.918c-0.214,0.291-1.797-0.478-4.188-1.952l0.614-0.672l-1.946-0.169
	c-0.346-0.222-0.703-0.455-1.071-0.698l3.857-0.301l0.406-0.672l-6.537-0.563c-0.101-0.069-0.202-0.141-0.305-0.212l7.464-0.575
	l0.217-0.575l-8.813-0.758l9.201-0.705l0.078-0.463l-9.279-0.793l9.409-0.732l0.009-0.279v-0.13l-9.418-0.81l9.306-0.715
	l-0.018-0.131l-0.068-0.383l-9.22-0.802l8.839-0.681L31.5,11.583l-8.658-0.74l8.061-0.628l-0.043-0.078l-0.338-0.55l-7.68-0.662
	L29.7,8.394l-0.096-0.123c-0.233-0.287-0.484-0.567-0.753-0.836l-0.025-0.026l-5.984-0.514l4.964-0.375L27.14,6.006
	C25.28,4.742,23.041,4,20.635,4c-4.411,0-8.251,2.485-10.223,6.137l-0.004,0.01c-1.97-1.748-3.085-2.959-2.884-3.236
	c0.147-0.2,0.961,0.114,2.258,0.819l0.225,0.13l-0.087-0.06c-2.76-1.622-4.593-2.423-4.878-2.021
	c-0.605,0.819,5.613,6.439,13.874,12.551c2.993,2.209,5.842,4.18,8.29,5.758l0.229,0.151h0.006c4.188,2.684,7.146,4.174,7.52,3.66
	C35.253,27.508,33.938,25.974,31.576,23.812z"/>
</svg>
